#N canvas 672 165 454 304 10;
#X obj 36 123 sendOSC;
#X msg 36 80 connect 132.206.14.87 5000;
#X msg 46 101 disconnect;
#X obj 20 18 r osc;
#X obj 238 53 dumpOSC 8000;
#X obj 238 79 print;
#X obj 23 263 s osc;
#X obj 20 39 list prepend send;
#X obj 20 59 list trim;
#X msg 35 238 /liberty/stop;
#X msg 23 216 /liberty/start 8000;
#X msg 135 246 /liberty/status 8000;
#X connect 1 0 0 0;
#X connect 2 0 0 0;
#X connect 3 0 7 0;
#X connect 4 0 5 0;
#X connect 7 0 8 0;
#X connect 8 0 0 0;
#X connect 9 0 6 0;
#X connect 10 0 6 0;
#X connect 11 0 6 0;
